<?xml version="1.0" encoding="UTF-8"?>
<svg width="166px" height="36px" viewBox="0 0 166 36" version="1.1" xmlns="http://www.w3.org/2000/svg" xmlns:xlink="http://www.w3.org/1999/xlink">
    <!-- Generator: Sketch 62 (91390) - https://sketch.com -->
    <title>SUPERTAG</title>
    <desc>Created with Sketch.</desc>
    <g id="Page-1" stroke="none" stroke-width="1" fill="none" fill-rule="evenodd">
        <?xml version="1.0" encoding="UTF-8"?>

  <?xml version="1.0" encoding="UTF-8"?>
<svg width="24px" height="33px" viewBox="0 0 24 33" version="1.1" xmlns="http://www.w3.org/2000/svg" xmlns:xlink="http://www.w3.org/1999/xlink">
    <!-- Generator: Sketch 62 (91390) - https://sketch.com -->
    <title>Path</title>
    <desc>Created with Sketch.</desc>
    <g id="Page-1" stroke="none" stroke-width="1" fill="none" fill-rule="evenodd">
        <path d="M13.0195312,32.3554688 C15.9101562,32.3554688 19.0351562,30.9882812 22.3945312,28.2539062 C23.1757812,27.21875 23.6835938,25.9296875 23.9179688,24.3867188 C23.9179688,22.6875 23.3320312,21.0078125 22.1601562,19.3476562 C19.9726562,17.2382812 16.0664062,15.0898438 10.4414062,12.9023438 C8.1171875,12.2773438 6.4765625,11.2226562 5.51953125,9.73828125 L5.51953125,9.73828125 L5.51953125,9.50390625 C5.890625,9.03515625 6.671875,8.80078125 7.86328125,8.80078125 L7.86328125,8.80078125 L8.91796875,8.80078125 L10.0898438,8.91796875 C10.8320312,8.91796875 13.5273438,10.9492188 18.1757812,15.0117188 C19.328125,16.4960938 20.2265625,17.2382812 20.8710938,17.2382812 C22.6679688,17.0625 23.5664062,16.28125 23.5664062,14.8945312 C23.4882812,14.0351562 23.3320312,13.6054688 23.0976562,13.6054688 C22.1015625,12.4335938 21.1640625,10.0898438 20.2851562,6.57421875 C19.7578125,2.82421875 18.6640625,0.94921875 17.0039062,0.94921875 L17.0039062,0.94921875 L17.0039062,1.06640625 C15.65625,1.06640625 14.8359375,1.92578125 14.5429688,3.64453125 L14.5429688,3.64453125 L15.2460938,6.10546875 L15.2460938,6.22265625 C12.921875,4.66015625 10.6171875,3.87890625 8.33203125,3.87890625 C6.6328125,3.9375 4.9140625,4.3671875 3.17578125,5.16796875 C1.80859375,6.125 0.94921875,7.3359375 0.59765625,8.80078125 C0.59765625,11.7695312 2.43359375,14.3085938 6.10546875,16.4179688 C14.6992188,19.5039062 18.9960938,21.9648438 18.9960938,23.8007812 L18.9960938,23.8007812 L18.9960938,24.3867188 C18.9960938,25.4804688 17.2382812,26.4960938 13.7226562,27.4335938 L13.7226562,27.4335938 L12.6679688,27.4335938 C12.0820312,27.4335938 11.2617188,27.0820312 10.2070312,26.3789062 C8.56640625,25.109375 7.35546875,22.921875 6.57421875,19.8164062 C6.33984375,17.3164062 5.48046875,16.0664062 3.99609375,16.0664062 C2.43359375,16.4765625 1.65234375,17.1796875 1.65234375,18.1757812 C1.65234375,20.4609375 2.43359375,23.15625 3.99609375,26.2617188 C6.69140625,30.3242188 9.69921875,32.3554688 13.0195312,32.3554688 Z" id="Path" fill="#00B1F5" fill-rule="nonzero"></path>
        <path d="M22.2332812,33 L35.0067187,31.4765625 C41.8817187,30.8125 45.3192187,29.484375 45.3192187,27.4921875 C45.3192187,26.6328125 44.6551562,24.953125 43.3270312,22.453125 C42.2332812,19.09375 41.2176562,13.6640625 40.2801562,6.1640625 C39.9676562,4.3671875 39.1473437,3.46875 37.8192187,3.46875 C36.2567187,3.87890625 35.4754687,4.62109375 35.4754687,5.6953125 C35.6317187,7.78515625 35.8270312,9.34765625 36.0614062,10.3828125 C36.8426562,17.0039062 38.0145312,22.1601562 39.5770312,25.8515625 C35.4754687,26.6132812 30.4754687,27.2773438 24.5770312,27.84375 L24.5770312,27.84375 L24.5770312,27.7265625 C27.0770312,16.7109375 28.3270312,9.40625 28.3270312,5.8125 L28.3270312,5.8125 L28.3270312,5.6953125 C28.0926562,3.8984375 27.3114062,3 25.9832812,3 C25.0848437,3 24.3035937,3.703125 23.6395312,5.109375 C23.6395312,8.83984375 22.1160937,17.1601562 19.0692187,30.0703125 C19.0692187,31.4570312 20.1239062,32.4335938 22.2332812,33 L22.2332812,33 Z" id="Path" fill="#00B1F5" fill-rule="nonzero"></path>
        <path d="M18.75,0 C20,0 21.2890625,0.6640625 22.6171875,1.9921875 L22.6171875,1.9921875 L22.96875,3.28125 L22.96875,4.1015625 L22.9647071,4.26111694 C22.8434214,6.67852449 19.9932065,10.1800272 14.4140625,14.765625 L14.4140625,14.765625 L9.140625,17.578125 L9.140625,17.6953125 L9.26354167,18.0475911 C10.4315972,21.4032335 11.015625,23.3170573 11.015625,23.7890625 C11.015625,24.9804688 10.1953125,25.7226562 8.5546875,26.015625 C7.0703125,26.015625 5.9375,24.2578125 5.15625,20.7421875 C1.81640625,11.2109375 0.09765625,5.5859375 0,3.8671875 C0,2.578125 0.8203125,1.8359375 2.4609375,1.640625 L2.4609375,1.640625 L2.578125,1.640625 L2.67173632,1.64686575 C3.06004993,1.69679179 3.61478365,2.04627404 4.3359375,2.6953125 C10.2929688,0.8984375 15.0976562,0 18.75,0 Z M17.34375,4.921875 L17.0464465,4.92486448 C14.3317024,4.97867506 10.5636161,5.75892857 5.7421875,7.265625 C6.8359375,11.09375 7.5,13.0078125 7.734375,13.0078125 C11.1523438,11.7773438 14.3554688,9.16015625 17.34375,5.15625 L17.34375,5.15625 L17.34375,4.921875 Z" id="Combined-Shape" fill="#00B1F5" fill-rule="nonzero"></path>
        <path d="M9.69726562,30.4101562 L11.0449219,30.1757812 C13.1542969,29.5898438 16.6113281,28.2421875 21.4160156,26.1328125 C25.0878906,25.1757812 26.9238281,23.9746094 26.9238281,22.5292969 C26.9238281,21.3769531 26.1328125,20.5859375 24.5507812,20.15625 L24.5507812,20.15625 L19.8339844,21.8554688 C13.8574219,24.4140625 10.5175781,25.6933594 9.81445312,25.6933594 L9.81445312,25.6933594 L8.5546875,25.6933594 L7.64648438,25.4589844 C6.92382813,25.4589844 6.40625,22.7148438 6.09375,17.2265625 C7.12890625,16.6992188 10.8789062,15.8007812 17.34375,14.53125 C18.7109375,14.53125 19.6875,13.7011719 20.2734375,12.0410156 C20.2734375,10.9472656 19.4140625,10.1953125 17.6953125,9.78515625 C12.6953125,10.7617188 8.7890625,11.6308594 5.9765625,12.3925781 C5.83984375,12.3925781 5.49804688,10.4003906 4.95117188,6.41601562 C11.6503906,5.20507812 17.0996094,4.59960938 21.2988281,4.59960938 C23.0175781,4.44335938 23.8769531,3.70117188 23.8769531,2.37304688 L23.8769531,2.37304688 L23.8769531,1.90429688 C23.4667969,0.634765625 22.6074219,0 21.2988281,0 L21.2988281,0 L20.15625,0 C17.1875,0 12.1191406,0.556640625 4.95117188,1.66992188 L4.95117188,1.66992188 L3.48632812,1.46484375 C1.96289062,1.46484375 0.80078125,2.74414062 0,5.30273438 L0,5.30273438 L0.908203125,9.78515625 C1.43554688,17.65625 1.92382812,22.8808594 2.37304688,25.4589844 C3.34960938,28.7597656 5.79101562,30.4101562 9.69726562,30.4101562 L9.69726562,30.4101562 Z" id="Path" fill="#00B1F5" fill-rule="nonzero"></path>
        <path d="M13.9453125,0 C15.9765625,0 17.1875,0.5859375 17.578125,1.7578125 L17.578125,1.7578125 L18.046875,3.75 L17.109375,7.5 L17.2265625,7.6171875 L17.34375,7.6171875 L17.6195504,7.44771975 C19.6095965,6.23257325 20.8848505,5.625 21.4453125,5.625 C22.9492188,5.625 23.9257812,6.640625 24.375,8.671875 C24.4335938,13.2226562 25.0195312,18.3789062 26.1328125,24.140625 L26.1328125,24.140625 L26.953125,26.6015625 L26.9076059,26.8201995 C26.5686338,28.3150665 25.8025568,29.0625 24.609375,29.0625 L24.609375,29.0625 L24.375,29.0625 L24.2505873,29.0581902 C22.5221192,28.9375169 21.3526526,26.2827035 20.7421875,21.09375 C20.4296875,19.9023438 20.078125,16.8554688 19.6875,11.953125 L19.6875,11.953125 L19.3359375,11.953125 L18.9064822,12.2457454 C14.9444021,14.95476 12.2750539,17.0447198 10.8984375,18.515625 C12.1484375,21.015625 12.7734375,22.5 12.7734375,22.96875 L12.7734375,22.96875 L12.7734375,23.203125 L12.7687854,23.3708205 C12.7005553,24.5786567 11.8817935,25.3040082 10.3125,25.546875 C9.0625,25.546875 8.046875,24.3359375 7.265625,21.9140625 C5.17578125,18.0273438 2.91015625,14.5117188 0.46875,11.3671875 L0.46875,11.3671875 L0,8.671875 L0.00389821245,8.5658396 C0.141635052,6.6787029 3.92939815,4.05779803 11.3671875,0.703125 C11.9726562,0.390625 12.8320312,0.15625 13.9453125,0 Z M12.65625,5.390625 L12.5390625,5.390625 L12.0723958,5.57291667 C9.88611111,6.45399306 7.58072917,7.76041667 5.15625,9.4921875 L5.15625,9.4921875 L5.15625,9.609375 L8.0859375,13.7109375 L8.4375,13.7109375 C10.7226562,10.7421875 12.1289062,8.0078125 12.65625,5.5078125 L12.65625,5.5078125 L12.65625,5.390625 Z" id="Combined-Shape" fill="#00B1F5" fill-rule="nonzero"></path>
    </g>
</svg>