
<svg width="145px" height="118px" viewBox="0 0 145 118" version="1.1" xmlns="http://www.w3.org/2000/svg" xmlns:xlink="http://www.w3.org/1999/xlink">
        <path d="M33.5056105,33.1564618 L36.435298,32.6877118 C39.7556105,31.8283368 43.3493605,29.7189618 47.216548,26.3595868 C48.779048,24.3283368 49.560298,22.9220868 49.560298,22.1408368 L49.560298,22.1408368 L49.560298,22.0236493 C49.560298,20.8517743 48.779048,20.0705243 47.216548,19.6798993 L47.216548,19.6798993 L46.6306105,19.9142743 C45.9860793,19.9142743 45.1267043,20.8908368 44.0524855,22.8439618 C39.6970168,26.5158368 36.1032668,28.3517743 33.2712355,28.3517743 C32.5876418,28.3517743 31.8845168,28.1955243 31.1618605,27.8830243 C28.5837355,26.6134931 27.294673,24.1525556 27.294673,20.5002118 C27.294673,18.8986493 27.4899855,17.6095868 27.8806105,16.6330243 C28.779048,14.4455243 31.200923,13.3517743 35.1462355,13.3517743 C37.0017043,13.3517743 38.7985793,13.6252118 40.5368605,14.1720868 C42.0212355,13.9377118 42.763423,13.2345868 42.763423,12.0627118 L42.763423,12.0627118 L42.6462355,11.3595868 C41.6501418,9.48458684 39.1110793,8.54708684 35.029048,8.54708684 C32.5485793,8.54708684 30.4001418,8.97677434 28.5837355,9.83614934 C24.5212355,11.5548993 22.4899855,15.0314618 22.4899855,20.2658368 C22.4899855,22.2580243 22.7243605,24.0158368 23.1931105,25.5392743 C25.4587355,30.6173993 28.8962355,33.1564618 33.5056105,33.1564618 L33.5056105,33.1564618 Z M55.1412355,32.5119306 C58.0318605,32.5119306 61.1568605,31.1447431 64.5162355,28.4103681 C65.2974855,27.3752118 65.805298,26.0861493 66.039673,24.5431806 C66.039673,22.8439618 65.4537355,21.1642743 64.2818605,19.5041181 C62.0943605,17.3947431 58.1881105,15.2463056 52.5631105,13.0588056 C50.2388917,12.4338056 48.5982667,11.3791181 47.6412355,9.89474309 L47.6412355,9.89474309 L47.6412355,9.66036809 C48.0123292,9.19161809 48.7935792,8.95724309 49.9849855,8.95724309 L49.9849855,8.95724309 L51.039673,8.95724309 L52.211548,9.07443059 C52.9537355,9.07443059 55.649048,11.1056806 60.2974855,15.1681806 C61.4498292,16.6525556 62.3482667,17.3947431 62.992798,17.3947431 C64.789673,17.2189618 65.6881105,16.4377118 65.6881105,15.0509931 C65.6099855,14.1916181 65.4537355,13.7619306 65.2193605,13.7619306 C64.2232667,12.5900556 63.2857667,10.2463056 62.4068605,6.73068059 C61.8795167,2.98068059 60.7857667,1.10568059 59.1256105,1.10568059 L59.1256105,1.10568059 L59.1256105,1.22286809 C57.7779542,1.22286809 56.9576417,2.08224309 56.664673,3.80099309 L56.664673,3.80099309 L57.367798,6.26193059 L57.367798,6.37911809 C55.0435792,4.81661809 52.7388917,4.03536809 50.4537355,4.03536809 C48.7545167,4.09396184 47.0357667,4.52364934 45.2974855,5.32443059 C43.930298,6.28146184 43.070923,7.49239934 42.7193605,8.95724309 C42.7193605,11.9259931 44.555298,14.4650556 48.227173,16.5744306 C56.820923,19.6603681 61.117798,22.1213056 61.117798,23.9572431 L61.117798,23.9572431 L61.117798,24.5431806 C61.117798,25.6369306 59.3599855,26.6525556 55.8443605,27.5900556 L55.8443605,27.5900556 L54.789673,27.5900556 C54.2037355,27.5900556 53.383423,27.2384931 52.3287355,26.5353681 C50.6881105,25.2658368 49.477173,23.0783368 48.695923,19.9728681 C48.461548,17.4728681 47.602173,16.2228681 46.117798,16.2228681 C44.555298,16.6330243 43.774048,17.3361493 43.774048,18.3322431 C43.774048,20.6173993 44.555298,23.3127118 46.117798,26.4181806 C48.8131105,30.4806806 51.820923,32.5119306 55.1412355,32.5119306 Z M72.9682667,32.5119306 C75.8588917,32.5119306 78.9838917,31.1447431 82.3432667,28.4103681 C83.1245167,27.3752118 83.6323292,26.0861493 83.8667042,24.5431806 C83.8667042,22.8439618 83.2807667,21.1642743 82.1088917,19.5041181 C79.9213917,17.3947431 76.0151417,15.2463056 70.3901417,13.0588056 C68.065923,12.4338056 66.425298,11.3791181 65.4682667,9.89474309 L65.4682667,9.89474309 L65.4682667,9.66036809 C65.8393605,9.19161809 66.6206105,8.95724309 67.8120167,8.95724309 L67.8120167,8.95724309 L68.8667042,8.95724309 L70.0385792,9.07443059 C70.7807667,9.07443059 73.4760792,11.1056806 78.1245167,15.1681806 C79.2768605,16.6525556 80.175298,17.3947431 80.8198292,17.3947431 C82.6167042,17.2189618 83.5151417,16.4377118 83.5151417,15.0509931 C83.4370167,14.1916181 83.2807667,13.7619306 83.0463917,13.7619306 C82.050298,12.5900556 81.112798,10.2463056 80.2338917,6.73068059 C79.706548,2.98068059 78.612798,1.10568059 76.9526417,1.10568059 L76.9526417,1.10568059 L76.9526417,1.22286809 C75.6049855,1.22286809 74.784673,2.08224309 74.4917042,3.80099309 L74.4917042,3.80099309 L75.1948292,6.26193059 L75.1948292,6.37911809 C72.8706105,4.81661809 70.565923,4.03536809 68.2807667,4.03536809 C66.581548,4.09396184 64.862798,4.52364934 63.1245167,5.32443059 C61.7573292,6.28146184 60.8979542,7.49239934 60.5463917,8.95724309 C60.5463917,11.9259931 62.3823292,14.4650556 66.0542042,16.5744306 C74.6479542,19.6603681 78.9448292,22.1213056 78.9448292,23.9572431 L78.9448292,23.9572431 L78.9448292,24.5431806 C78.9448292,25.6369306 77.1870167,26.6525556 73.6713917,27.5900556 L73.6713917,27.5900556 L72.6167042,27.5900556 C72.0307667,27.5900556 71.2104542,27.2384931 70.1557667,26.5353681 C68.5151417,25.2658368 67.3042042,23.0783368 66.5229542,19.9728681 C66.2885792,17.4728681 65.4292042,16.2228681 63.9448292,16.2228681 C62.3823292,16.6330243 61.6010792,17.3361493 61.6010792,18.3322431 C61.6010792,20.6173993 62.3823292,23.3127118 63.9448292,26.4181806 C66.6401417,30.4806806 69.6479542,32.5119306 72.9682667,32.5119306 Z M16.6618605,65.8166181 C18.3024855,65.5236493 19.122798,64.7423993 19.122798,63.4728681 L19.122798,63.4728681 L18.3024855,59.1369306 C17.3649855,55.2111493 16.075923,51.5783368 14.435298,48.2384931 C14.435298,47.7697431 16.1931105,46.8713056 19.7087355,45.5431806 C22.9118605,44.9181806 24.513423,43.8634931 24.513423,42.3791181 L24.513423,42.3791181 L24.513423,42.2619306 C24.513423,41.0119306 23.732173,40.2306806 22.169673,39.9181806 C18.2048293,41.0119306 15.6657668,41.8713056 14.5524855,42.4963056 L14.5524855,42.4963056 L4.94311051,47.7697431 L3.53686051,47.6525556 C1.50561051,48.3947431 0.489985514,49.3713056 0.489985514,50.5822431 C0.900141764,52.2228681 1.79857926,53.1213056 3.18529801,53.2775556 C4.29857926,53.2775556 6.52514176,52.4181806 9.86498551,50.6994306 L9.86498551,50.6994306 L9.98217301,50.6994306 L10.3337355,50.9338056 C11.5837355,53.1798993 12.716548,56.3439618 13.732173,60.4259931 C14.0251418,64.0197431 15.0017043,65.8166181 16.6618605,65.8166181 Z M29.2447511,65.8166181 C29.9283449,65.8166181 30.8658449,65.6213056 32.0572511,65.2306806 C36.4322511,63.7463056 39.4400636,61.4806806 41.0806886,58.4338056 C43.3463136,54.1173993 44.4791261,50.4064618 44.4791261,47.3009931 C44.2056886,44.8009931 43.7369386,42.9259931 43.0728761,41.6759931 C40.9635011,38.6291181 38.5806886,37.1056806 35.9244386,37.1056806 C34.1275636,37.1056806 32.0963136,37.6525556 29.8306886,38.7463056 C23.8931886,42.8869306 20.9244386,47.6525556 20.9244386,53.0431806 L20.9244386,53.0431806 L20.9244386,53.3947431 C20.9244386,55.1134931 21.2760011,57.3791181 21.9791261,60.1916181 C23.1119386,63.9416181 25.4556886,65.8166181 29.0103761,65.8166181 L29.0103761,65.8166181 L29.2447511,65.8166181 Z M28.6588136,61.0119306 C28.1119386,61.0119306 27.6822511,60.8556806 27.3697511,60.5431806 C26.2760011,58.3556806 25.7291261,55.9728681 25.7291261,53.3947431 C25.7291261,51.6173993 26.1197511,49.8986493 26.9010011,48.2384931 C29.7525636,44.0197431 32.6822511,41.9103681 35.6900636,41.9103681 L35.6900636,41.9103681 L36.7447511,42.0275556 C38.6197511,42.8478681 39.5572511,44.6056806 39.5572511,47.3009931 L39.5572511,47.3009931 L39.5572511,48.0041181 C39.5572511,50.3283368 38.5025636,53.3361493 36.3931886,57.0275556 C33.8541261,59.6838056 31.2760011,61.0119306 28.6588136,61.0119306 Z M69.9800296,66.0072647 C71.6457146,66.0618032 72.6105323,65.4681779 72.8744827,64.226389 L72.8744827,64.226389 L72.9735881,59.8146495 C72.8727905,55.7797388 72.3672013,51.9583008 71.4568205,48.3503356 C71.5542791,47.8918289 73.4604748,47.3784942 77.1754077,46.8103314 C80.4384816,46.8649563 82.2243279,46.1662998 82.5329469,44.714362 L82.5329469,44.714362 L82.5573115,44.5997353 C82.8172011,43.3770508 82.2154543,42.450442 80.7520711,41.8199088 C76.6464653,42.0654204 73.9842133,42.3781152 72.7653151,42.7579933 L72.7653151,42.7579933 L62.2695187,45.9182921 L60.9183633,45.5112896 C58.7771915,45.8149379 57.5807216,46.5589999 57.3289535,47.7434755 C57.3890417,49.4335252 58.0810506,50.4991253 59.40498,50.9402759 C60.4939334,51.1717401 62.8505142,50.7940729 66.4747226,49.8072743 L66.4747226,49.8072743 L66.5893493,49.8316389 L66.8845,50.1339862 C67.6401954,52.590887 68.0904076,55.9213322 68.2351367,60.1253215 C67.7745208,63.7014511 68.3561517,65.6620988 69.9800296,66.0072647 Z M96.5589745,71.6567939 C98.2449634,71.6158101 99.2097811,71.0221848 99.4534276,69.8759181 C99.553834,67.9005012 100.071763,64.3365539 101.007216,59.1840764 L101.007216,59.1840764 L101.438583,57.7182943 C101.190225,57.6655042 101.594452,54.6364814 102.651265,48.631226 C103.382205,45.1924258 102.945288,43.3024732 101.340515,42.9613681 C99.7357412,42.6202629 98.6978295,43.5577682 98.2267796,45.7738839 L98.2267796,45.7738839 L96.5168323,56.0731163 C93.6198788,55.5172526 89.3690965,55.4124245 83.7644854,55.758632 L83.7644854,55.758632 L83.6498587,55.7342674 C83.5173271,55.606259 83.2494888,53.6723747 82.8463439,49.9326147 C82.933455,46.5167053 82.2128327,44.6463196 80.6844771,44.3214576 C79.0627237,44.4359978 78.1361148,45.0377446 77.9046507,46.126698 C77.8153136,46.5469958 78.0883256,49.9595814 78.7236867,56.3644547 L78.7236867,56.3644547 L78.6993221,56.4790814 C78.0255943,57.3941584 77.6582746,57.9949802 77.597363,58.2815469 L77.597363,58.2815469 L77.5486337,58.5108003 C77.434932,59.0457247 77.5504836,59.6293785 77.8952886,60.2617616 C78.6042775,60.8717164 78.9734471,61.3894728 79.0027975,61.8150308 C78.7762326,65.0415577 79.3984713,66.8111609 80.8695136,67.1238406 C82.5555025,67.0828568 83.5203202,66.4892316 83.7639667,65.3429649 L83.7639667,65.3429649 L83.7484455,60.9068608 C84.6554874,60.0214086 88.646929,60.031177 95.7227703,60.9361658 L95.7227703,60.9361658 L95.837397,60.9605305 L94.7924919,67.5673447 C94.4991047,69.9809645 95.0879322,71.3441142 96.5589745,71.6567939 Z M105.098894,73.6816694 L106.46583,73.7326096 C108.650933,73.59804 112.312613,72.9985904 117.450871,71.934261 C121.241484,71.761569 123.28704,70.9683584 123.587537,69.5546295 C123.827123,68.4274672 123.217854,67.4892758 121.759731,66.7400552 L121.759731,66.7400552 L116.79272,67.4214647 C110.414799,68.6815498 106.881958,69.2384985 106.194198,69.0923105 L106.194198,69.0923105 L104.961961,68.8303905 L104.122334,68.4123112 C103.415469,68.2620625 103.47974,65.4702774 104.315147,60.0369558 C105.437323,59.7363569 109.292173,59.6372212 115.879694,59.7395489 C117.217006,60.0238032 118.344811,59.414903 119.26311,57.9128484 C119.490513,56.8429995 118.806258,55.9288042 117.210343,55.1702626 C112.116566,55.0859264 108.114972,55.1239192 105.205562,55.2842409 C105.071831,55.2558155 105.151702,53.2360985 105.445176,49.22509 C112.249769,49.4334603 117.705793,49.9741787 121.813249,50.8472454 C123.526926,51.0517581 124.521831,50.5044633 124.797964,49.205361 L124.797964,49.205361 L124.895422,48.7468543 C124.75818,47.4197891 124.049559,46.6202205 122.769561,46.3481485 L122.769561,46.3481485 L121.651951,46.1105932 C118.748076,45.4933554 113.67474,44.9840609 106.431944,44.5827098 L106.431944,44.5827098 L105.041749,44.0775549 C103.551602,43.7608145 102.148907,44.7705395 100.833663,47.1067301 L100.833663,47.1067301 L100.790072,51.6800263 C99.6693996,59.4887587 99.0607534,64.7007172 98.9641333,67.3159018 C99.2330845,70.7475919 101.278005,72.8695144 105.098894,73.6816694 L105.098894,73.6816694 Z M27.4020934,108.816655 C28.6427761,108.968992 29.5181737,108.250004 30.0282863,106.659692 L30.0282863,106.659692 L29.5140011,104.117127 C29.111195,98.2626807 29.1580138,93.0734568 29.6544575,88.5494556 C29.4561342,86.4786002 28.6106244,85.3515325 27.1179281,85.1682524 C26.5363581,85.0968446 25.0984325,85.589339 22.8041514,86.6457357 L22.8041514,86.6457357 L22.6878374,86.6314542 L22.585805,86.5008586 L23.973327,82.893063 L23.7508576,80.8585987 C23.5059599,79.6478535 22.3754564,78.9187073 20.359347,78.6711602 C19.2353219,78.6905707 18.3537894,78.8184672 17.7147496,79.0548498 C9.77656515,81.5238005 5.69203031,83.6984806 5.46114503,85.5788903 L5.46114503,85.5788903 L5.59792507,88.3112386 C7.63791149,91.7298636 9.45820196,95.4953939 11.0587965,99.6078295 C11.5390708,102.106863 12.3995494,103.432548 13.640232,103.584884 C15.2995715,103.532812 16.2089799,102.857357 16.3684574,101.558517 L16.3684574,101.558517 L16.3970205,101.325889 C16.4541467,100.860633 16.0147052,99.311154 15.0786959,96.6774519 C16.6795099,95.3391289 19.7376351,93.5106917 24.2530716,91.1921404 L24.2530716,91.1921404 L24.6020136,91.2349851 C24.3922815,96.1483927 24.3699029,99.2154015 24.5348777,100.436011 C24.5077881,105.785081 25.385984,108.569108 27.1694654,108.788092 L27.1694654,108.788092 L27.4020934,108.816655 Z M13.2216459,91.608665 L12.8727039,91.5658203 L10.4647086,87.1377911 L10.4789902,87.0214771 C13.2834086,85.4964134 15.8926209,84.4393296 18.306627,83.8502256 L18.306627,83.8502256 L18.422941,83.8645071 L18.4086595,83.9808211 C17.5805731,86.3979195 15.8515686,88.9405341 13.2216459,91.608665 L13.2216459,91.608665 Z M32.5398898,106.997595 L33.906064,106.929205 C36.0711239,106.604703 39.6666249,105.688399 44.6925671,104.180291 C48.4537053,103.677882 50.422344,102.709408 50.5984833,101.274869 C50.7389187,100.131114 50.0501997,99.2495941 48.5323264,98.6303083 L48.5323264,98.6303083 L43.6436052,99.7420284 C37.3997769,101.553191 33.9289208,102.415928 33.2310368,102.330238 L33.2310368,102.330238 L31.9806613,102.176711 L31.1077909,101.833401 C30.3905212,101.745332 30.2112276,98.9585686 30.5699102,93.473112 C31.6616176,93.0758528 35.4931576,92.6411222 42.0645304,92.1689201 C43.4215271,92.3355383 44.4919715,91.6306605 45.2758636,90.0542866 C45.4091582,88.9686893 44.6478289,88.1176096 42.9918757,87.5010477 C37.9101319,87.8609843 33.9270769,88.2475944 31.0427107,88.6608778 C30.907011,88.644216 30.8105484,86.6252234 30.7533229,82.6039 C37.5501829,82.2184181 43.0325721,82.2815551 47.2004905,82.7933111 C48.9254712,82.8476887 49.8688905,82.2157649 50.0307482,80.8975395 L50.0307482,80.8975395 L50.0878745,80.4322835 C49.8354924,79.1222297 49.0598815,78.387464 47.7610418,78.2279866 L47.7610418,78.2279866 L46.6269803,78.0887413 C43.6803589,77.7269417 38.5819409,77.6617556 31.3317263,77.893183 L31.3317263,77.893183 L29.902794,77.5111139 C28.3907119,77.3254536 27.0813577,78.4535893 25.9747312,80.895521 L25.9747312,80.895521 L26.3298949,85.4552137 C25.8940629,93.3319045 25.7419848,98.577077 25.8736608,101.190731 C26.4406801,104.585922 28.6627564,106.521543 32.5398898,106.997595 L32.5398898,106.997595 Z M55.658948,108.980269 C58.5280267,109.332548 61.7963517,108.356393 65.4639229,106.051804 C66.3655034,105.119574 67.026628,103.902007 67.4472966,102.399102 C67.6543792,100.712549 67.2775116,98.973974 66.3166938,97.1833767 C64.4025672,94.8231354 60.7872625,92.2146599 55.4707795,89.3579502 C53.2400535,88.4543578 51.7401916,87.2075899 50.9711937,85.6176464 L50.9711937,85.6176464 L50.9997568,85.3850184 C51.4252107,84.9649874 52.2292005,84.8275698 53.4117262,84.9727657 L53.4117262,84.9727657 L54.4585523,85.1012998 L55.6074107,85.3604294 C56.3440661,85.4508793 58.771741,87.7954646 62.8904355,92.3941854 C63.8532901,94.0079315 64.6545809,94.8540788 65.2943079,94.9326274 C67.0992116,94.9771404 68.0861627,94.3112057 68.2551612,92.9348233 C68.28235,92.072333 68.1796304,91.6268062 67.9470024,91.5982431 C67.101149,90.3137098 66.4562683,87.8731772 66.0123602,84.2766454 C65.9459572,80.4903303 65.0888649,78.4960117 63.4410832,78.2936895 L63.4410832,78.2936895 L63.4268016,78.4100035 C62.0891906,78.2457655 61.1702611,78.9987639 60.6700132,80.6689987 L60.6700132,80.6689987 L61.0679843,83.1972822 L61.0537028,83.3135962 C58.9372292,81.4794918 56.744931,80.4231944 54.4768079,80.1447039 C52.7831141,79.9957782 51.0248097,80.2127999 49.2018946,80.7957691 C47.7282652,81.5790485 46.7277197,82.6762284 46.2002581,84.0873088 C45.8384585,87.0339301 47.3512773,89.7778113 50.7387146,92.3189524 C58.8923269,96.4292024 62.8572608,99.3954538 62.6335163,101.217707 L62.6335163,101.217707 L62.5621085,101.799277 C62.4288139,102.884874 60.5603303,103.678705 56.9566577,104.18077 L56.9566577,104.18077 L55.9098317,104.052236 C55.3282617,103.980828 54.5569084,103.531915 53.5957717,102.705497 C52.1220926,101.245487 51.1867705,98.9267162 50.7898052,95.7491847 C50.8618506,93.2392562 50.1612179,91.893842 48.6879072,91.7129422 C47.0870684,91.9296204 46.2259523,92.532294 46.104559,93.520963 C45.8260685,95.789086 46.2730192,98.5595185 47.4454112,101.83226 C49.625539,106.192955 52.3633846,108.575625 55.658948,108.980269 Z M72.7511377,111.728297 L75.716114,111.620081 C79.1164088,111.171756 82.9404397,109.516071 87.1882066,106.653028 C88.9866071,104.82734 89.9334125,103.526782 90.0286229,102.751356 L90.0286229,102.751356 L90.0429045,102.635042 C90.1857201,101.471901 89.5055039,100.601264 88.0022557,100.02313 L88.0022557,100.02313 L87.3921226,100.18435 C86.7523956,100.105802 85.7804132,100.970354 84.4761755,102.778006 C79.7056827,105.891713 75.9149755,107.275998 73.1040538,106.93086 C72.4255554,106.847551 71.7467135,106.606776 71.067528,106.208536 C68.6633369,104.634273 67.6837957,102.034582 68.1289044,98.4094624 C68.3240858,96.8198377 68.6750397,95.5641863 69.181766,94.6425081 C70.3400959,92.5808054 72.8772132,91.7903604 76.7931179,92.271173 C78.6347563,92.4972978 80.384914,92.9876811 82.0435911,93.742323 C83.5454649,93.6905948 84.3678097,93.0831607 84.5106253,91.9200206 L84.5106253,91.9200206 L84.4800007,91.2078551 C83.7198367,89.2254377 81.3139525,87.9854918 77.2623481,87.4880174 C74.8003683,87.1857243 72.6155792,87.3503803 70.7079807,87.9819854 C66.4662991,89.1928299 64.0265033,92.3959315 63.3885935,97.5912903 C63.1458069,99.5686283 63.1642114,101.341901 63.4438071,102.91111 C65.0736767,108.227493 68.1761202,111.166556 72.7511377,111.728297 L72.7511377,111.728297 Z M85.6764148,113.315322 L98.5403014,113.35993 C105.444985,113.538669 109.01872,112.63937 109.261507,110.662032 C109.366238,109.809063 108.911828,108.060966 107.898276,105.417743 C107.222083,101.950114 106.875741,96.4371249 106.859249,88.8787763 C106.768063,87.0572108 106.063357,86.0654991 104.745131,85.9036414 C103.144292,86.1203196 102.278416,86.7617645 102.147501,87.8279762 C102.047899,89.9212846 102.051335,91.4959406 102.157809,92.5519441 C102.126327,99.2188956 102.661078,104.479527 103.762063,108.333839 C99.5982423,108.590026 94.5545827,108.639792 88.6310837,108.483137 L88.6310837,108.483137 L88.6453652,108.366823 C92.4691976,97.7379803 94.6000977,90.6400775 95.0380657,87.0731148 L95.0380657,87.0731148 L95.0523473,86.9568008 C95.0387032,85.1447563 94.3727685,84.1578052 93.0545432,83.9959475 C92.1628025,83.8864555 91.3016864,84.4891291 90.471195,85.8039682 C90.0165652,89.5066306 87.4904922,97.5792645 82.8929758,110.02187 C82.7239773,111.398252 83.6517903,112.496069 85.6764148,113.315322 L85.6764148,113.315322 Z M113.726598,116.96607 L115.092772,116.89768 C117.257832,116.573178 120.853333,115.656873 125.879275,114.148765 C129.640413,113.646356 131.609052,112.677882 131.785191,111.243343 C131.925627,110.099588 131.236908,109.218068 129.719035,108.598783 L129.719035,108.598783 L124.830313,109.710503 C118.586485,111.521665 115.115629,112.384402 114.417745,112.298713 L114.417745,112.298713 L113.167369,112.145186 L112.294499,111.801876 C111.577229,111.713806 111.397936,108.927043 111.756618,103.441586 C112.848326,103.044327 116.679866,102.609596 123.251239,102.137394 C124.608235,102.304013 125.67868,101.599135 126.462572,100.022761 C126.595866,98.9371636 125.834537,98.0860839 124.178584,97.469522 C119.09684,97.8294586 115.113785,98.2160687 112.229419,98.6293522 C112.093719,98.6126903 111.997257,96.5936977 111.940031,92.5723744 C118.736891,92.1868924 124.21928,92.2500294 128.387199,92.7617855 C130.112179,92.8161631 131.055599,92.1842392 131.217456,90.8660138 L131.217456,90.8660138 L131.274583,90.4007578 C131.022201,89.090704 130.24659,88.3559383 128.94775,88.1964609 L128.94775,88.1964609 L127.813688,88.0572156 C124.867067,87.695416 119.768649,87.6302299 112.518434,87.8616573 L112.518434,87.8616573 L111.089502,87.4795882 C109.57742,87.2939279 108.268066,88.4220636 107.161439,90.8639953 L107.161439,90.8639953 L107.516603,95.423688 C107.080771,103.300379 106.928693,108.545551 107.060369,111.159205 C107.627388,114.554396 109.849465,116.490018 113.726598,116.96607 L113.726598,116.96607 Z" id="CSSTOTHERESCUE" fill="#00B1F5" fill-rule="nonzero" transform="translate(66.146508, 59.035875) rotate(-17.000000) translate(-66.146508, -59.035875) "></path>
</svg>